<svg width="24" height="24" viewBox="0 0 24 24" fill="none" xmlns="http://www.w3.org/2000/svg">
<path fill-rule="evenodd" clip-rule="evenodd" d="M11.9998 0.000366211C5.37276 0.000366211 -0.000244141 5.37237 -0.000244141 11.9984C-0.000244141 18.6254 5.37276 23.9964 11.9998 23.9964C18.6288 23.9964 23.9998 18.6254 23.9998 11.9984C23.9998 5.37237 18.6288 0.000366211 11.9998 0.000366211ZM20.0898 16.4414C19.7798 16.5484 17.9648 16.2004 15.8608 15.7044C15.8848 13.3044 15.7378 10.6964 15.4188 10.2424C14.9628 9.85237 11.2238 8.79637 8.11476 8.06337C8.13576 5.99937 8.28276 4.08937 8.55776 3.83737C9.31976 3.57037 19.3248 6.10037 20.0898 6.75337C20.6838 7.60037 20.6818 15.8964 20.0898 16.4414ZM8.11476 8.06337C6.00976 7.56637 4.19476 7.21837 3.88576 7.32537C3.29276 7.87137 3.29276 16.1694 3.88476 17.0124C4.64876 17.6664 14.6548 20.1974 15.4188 19.9294C15.6928 19.6774 15.8398 17.7674 15.8608 15.7044C12.7518 14.9704 9.00976 13.9144 8.55676 13.5244C8.23776 13.0704 8.09176 10.4624 8.11476 8.06337Z" fill="black"/>
</svg>
